<mxfile host="app.diagrams.net" agent="Mozilla/5.0 (X11; Ubuntu; Linux x86_64; rv:138.0) Gecko/20100101 Firefox/138.0" version="27.1.1">
  <diagram name="Page-1" id="tyCQBtL9wLTqNJYj6jpn">
    <mxGraphModel dx="2460" dy="708" grid="1" gridSize="10" guides="1" tooltips="1" connect="1" arrows="1" fold="1" page="1" pageScale="1" pageWidth="850" pageHeight="1100" math="0" shadow="0">
      <root>
        <mxCell id="0" />
        <mxCell id="1" parent="0" />
        <mxCell id="bSWN6tdNE-U2g3Sw7Q1R-1" value="&amp;lt;&amp;lt;boundary&amp;gt;&amp;gt;&lt;br&gt;&lt;b&gt;V_TypeDeviceConfiguration&lt;/b&gt;&lt;div&gt;&lt;br&gt;&lt;/div&gt;" style="swimlane;fontStyle=0;align=center;verticalAlign=top;childLayout=stackLayout;horizontal=1;startSize=40;horizontalStack=0;resizeParent=1;resizeParentMax=0;resizeLast=0;collapsible=0;marginBottom=0;html=1;whiteSpace=wrap;" parent="1" vertex="1">
          <mxGeometry y="303" width="290" height="348" as="geometry" />
        </mxCell>
        <mxCell id="bSWN6tdNE-U2g3Sw7Q1R-2" value="&lt;div&gt;-&amp;nbsp;typeDeviceName: string&lt;/div&gt;" style="text;html=1;strokeColor=none;fillColor=none;align=left;verticalAlign=middle;spacingLeft=4;spacingRight=4;overflow=hidden;rotatable=0;points=[[0,0.5],[1,0.5]];portConstraint=eastwest;whiteSpace=wrap;" parent="bSWN6tdNE-U2g3Sw7Q1R-1" vertex="1">
          <mxGeometry y="40" width="290" height="20" as="geometry" />
        </mxCell>
        <mxCell id="bSWN6tdNE-U2g3Sw7Q1R-3" value="&lt;div&gt;-&amp;nbsp;typeDeviceCode: int&lt;/div&gt;" style="text;html=1;strokeColor=none;fillColor=none;align=left;verticalAlign=middle;spacingLeft=4;spacingRight=4;overflow=hidden;rotatable=0;points=[[0,0.5],[1,0.5]];portConstraint=eastwest;whiteSpace=wrap;" parent="bSWN6tdNE-U2g3Sw7Q1R-1" vertex="1">
          <mxGeometry y="60" width="290" height="20" as="geometry" />
        </mxCell>
        <mxCell id="bSWN6tdNE-U2g3Sw7Q1R-4" value="&lt;div&gt;- copyFromTypeDevice: string&lt;/div&gt;" style="text;html=1;strokeColor=none;fillColor=none;align=left;verticalAlign=middle;spacingLeft=4;spacingRight=4;overflow=hidden;rotatable=0;points=[[0,0.5],[1,0.5]];portConstraint=eastwest;whiteSpace=wrap;" parent="bSWN6tdNE-U2g3Sw7Q1R-1" vertex="1">
          <mxGeometry y="80" width="290" height="20" as="geometry" />
        </mxCell>
        <mxCell id="bSWN6tdNE-U2g3Sw7Q1R-5" value="&lt;div&gt;&lt;span style=&quot;background-color: transparent; color: light-dark(rgb(0, 0, 0), rgb(255, 255, 255));&quot;&gt;- sensorName: string&lt;/span&gt;&lt;/div&gt;" style="text;html=1;strokeColor=none;fillColor=none;align=left;verticalAlign=middle;spacingLeft=4;spacingRight=4;overflow=hidden;rotatable=0;points=[[0,0.5],[1,0.5]];portConstraint=eastwest;whiteSpace=wrap;" parent="bSWN6tdNE-U2g3Sw7Q1R-1" vertex="1">
          <mxGeometry y="100" width="290" height="20" as="geometry" />
        </mxCell>
        <mxCell id="bSWN6tdNE-U2g3Sw7Q1R-6" value="" style="line;strokeWidth=1;fillColor=none;align=left;verticalAlign=middle;spacingTop=-1;spacingLeft=3;spacingRight=3;rotatable=0;labelPosition=right;points=[];portConstraint=eastwest;" parent="bSWN6tdNE-U2g3Sw7Q1R-1" vertex="1">
          <mxGeometry y="120" width="290" height="8" as="geometry" />
        </mxCell>
        <mxCell id="bSWN6tdNE-U2g3Sw7Q1R-7" value="+ viewTypeDevice(typeDeviceCode: int): void" style="text;html=1;strokeColor=none;fillColor=none;align=left;verticalAlign=middle;spacingLeft=4;spacingRight=4;overflow=hidden;rotatable=0;points=[[0,0.5],[1,0.5]];portConstraint=eastwest;whiteSpace=wrap;" parent="bSWN6tdNE-U2g3Sw7Q1R-1" vertex="1">
          <mxGeometry y="128" width="290" height="22" as="geometry" />
        </mxCell>
        <mxCell id="bSWN6tdNE-U2g3Sw7Q1R-8" value="+ copyFromTypeDevice(typeDeviceCode: int): void" style="text;html=1;strokeColor=none;fillColor=none;align=left;verticalAlign=middle;spacingLeft=4;spacingRight=4;overflow=hidden;rotatable=0;points=[[0,0.5],[1,0.5]];portConstraint=eastwest;whiteSpace=wrap;" parent="bSWN6tdNE-U2g3Sw7Q1R-1" vertex="1">
          <mxGeometry y="150" width="290" height="22" as="geometry" />
        </mxCell>
        <mxCell id="bSWN6tdNE-U2g3Sw7Q1R-9" value="+ searchConfig(sensorName: string): void" style="text;html=1;strokeColor=none;fillColor=none;align=left;verticalAlign=middle;spacingLeft=4;spacingRight=4;overflow=hidden;rotatable=0;points=[[0,0.5],[1,0.5]];portConstraint=eastwest;whiteSpace=wrap;" parent="bSWN6tdNE-U2g3Sw7Q1R-1" vertex="1">
          <mxGeometry y="172" width="290" height="22" as="geometry" />
        </mxCell>
        <mxCell id="bSWN6tdNE-U2g3Sw7Q1R-10" value="&lt;div&gt;+ addNewConfig(): void&lt;/div&gt;" style="text;html=1;strokeColor=none;fillColor=none;align=left;verticalAlign=middle;spacingLeft=4;spacingRight=4;overflow=hidden;rotatable=0;points=[[0,0.5],[1,0.5]];portConstraint=eastwest;whiteSpace=wrap;" parent="bSWN6tdNE-U2g3Sw7Q1R-1" vertex="1">
          <mxGeometry y="194" width="290" height="22" as="geometry" />
        </mxCell>
        <mxCell id="bSWN6tdNE-U2g3Sw7Q1R-11" value="&lt;div&gt;+ deleteConfig(index: int): void&lt;/div&gt;" style="text;html=1;strokeColor=none;fillColor=none;align=left;verticalAlign=middle;spacingLeft=4;spacingRight=4;overflow=hidden;rotatable=0;points=[[0,0.5],[1,0.5]];portConstraint=eastwest;whiteSpace=wrap;" parent="bSWN6tdNE-U2g3Sw7Q1R-1" vertex="1">
          <mxGeometry y="216" width="290" height="22" as="geometry" />
        </mxCell>
        <mxCell id="bSWN6tdNE-U2g3Sw7Q1R-12" value="&lt;div&gt;+ resetDefault(): void&lt;/div&gt;" style="text;html=1;strokeColor=none;fillColor=none;align=left;verticalAlign=middle;spacingLeft=4;spacingRight=4;overflow=hidden;rotatable=0;points=[[0,0.5],[1,0.5]];portConstraint=eastwest;whiteSpace=wrap;" parent="bSWN6tdNE-U2g3Sw7Q1R-1" vertex="1">
          <mxGeometry y="238" width="290" height="22" as="geometry" />
        </mxCell>
        <mxCell id="bSWN6tdNE-U2g3Sw7Q1R-13" value="+ completeTypeDevice(): void" style="text;html=1;strokeColor=none;fillColor=none;align=left;verticalAlign=middle;spacingLeft=4;spacingRight=4;overflow=hidden;rotatable=0;points=[[0,0.5],[1,0.5]];portConstraint=eastwest;whiteSpace=wrap;" parent="bSWN6tdNE-U2g3Sw7Q1R-1" vertex="1">
          <mxGeometry y="260" width="290" height="22" as="geometry" />
        </mxCell>
        <mxCell id="bSWN6tdNE-U2g3Sw7Q1R-14" value="+ validateTypeDevice(): void" style="text;html=1;strokeColor=none;fillColor=none;align=left;verticalAlign=middle;spacingLeft=4;spacingRight=4;overflow=hidden;rotatable=0;points=[[0,0.5],[1,0.5]];portConstraint=eastwest;whiteSpace=wrap;" parent="bSWN6tdNE-U2g3Sw7Q1R-1" vertex="1">
          <mxGeometry y="282" width="290" height="22" as="geometry" />
        </mxCell>
        <mxCell id="bSWN6tdNE-U2g3Sw7Q1R-15" value="+ cancel(): void" style="text;html=1;strokeColor=none;fillColor=none;align=left;verticalAlign=middle;spacingLeft=4;spacingRight=4;overflow=hidden;rotatable=0;points=[[0,0.5],[1,0.5]];portConstraint=eastwest;whiteSpace=wrap;" parent="bSWN6tdNE-U2g3Sw7Q1R-1" vertex="1">
          <mxGeometry y="304" width="290" height="22" as="geometry" />
        </mxCell>
        <mxCell id="x7CvdzzdXY2x8KooDXCQ-1" value="+ searchTypeDevice(typeDeviceCode: int): void" style="text;html=1;strokeColor=none;fillColor=none;align=left;verticalAlign=middle;spacingLeft=4;spacingRight=4;overflow=hidden;rotatable=0;points=[[0,0.5],[1,0.5]];portConstraint=eastwest;whiteSpace=wrap;" parent="bSWN6tdNE-U2g3Sw7Q1R-1" vertex="1">
          <mxGeometry y="326" width="290" height="22" as="geometry" />
        </mxCell>
        <mxCell id="bSWN6tdNE-U2g3Sw7Q1R-16" value="&amp;lt;&amp;lt;control&amp;gt;&amp;gt;&lt;br&gt;&lt;b&gt;C_TypeDevice&lt;/b&gt;&lt;div&gt;&lt;br&gt;&lt;/div&gt;" style="swimlane;fontStyle=0;align=center;verticalAlign=top;childLayout=stackLayout;horizontal=1;startSize=44;horizontalStack=0;resizeParent=1;resizeParentMax=0;resizeLast=0;collapsible=0;marginBottom=0;html=1;whiteSpace=wrap;" parent="1" vertex="1">
          <mxGeometry x="420" y="586" width="450" height="289" as="geometry" />
        </mxCell>
        <mxCell id="bSWN6tdNE-U2g3Sw7Q1R-17" value="" style="line;strokeWidth=1;fillColor=none;align=left;verticalAlign=middle;spacingTop=-1;spacingLeft=3;spacingRight=3;rotatable=0;labelPosition=right;points=[];portConstraint=eastwest;" parent="bSWN6tdNE-U2g3Sw7Q1R-16" vertex="1">
          <mxGeometry y="44" width="450" height="8" as="geometry" />
        </mxCell>
        <mxCell id="bSWN6tdNE-U2g3Sw7Q1R-18" value="&lt;div&gt;+ getAllTypeDevice(): List&amp;lt;TypeDevice&amp;gt;&lt;/div&gt;" style="text;html=1;strokeColor=none;fillColor=none;align=left;verticalAlign=middle;spacingLeft=4;spacingRight=4;overflow=hidden;rotatable=0;points=[[0,0.5],[1,0.5]];portConstraint=eastwest;whiteSpace=wrap;" parent="bSWN6tdNE-U2g3Sw7Q1R-16" vertex="1">
          <mxGeometry y="52" width="450" height="20" as="geometry" />
        </mxCell>
        <mxCell id="bSWN6tdNE-U2g3Sw7Q1R-19" value="&lt;div&gt;+ getTypeDevice(typeDeviceCode: int): TypeDevice&lt;/div&gt;&lt;div&gt;&lt;br&gt;&lt;/div&gt;" style="text;html=1;strokeColor=none;fillColor=none;align=left;verticalAlign=middle;spacingLeft=4;spacingRight=4;overflow=hidden;rotatable=0;points=[[0,0.5],[1,0.5]];portConstraint=eastwest;whiteSpace=wrap;" parent="bSWN6tdNE-U2g3Sw7Q1R-16" vertex="1">
          <mxGeometry y="72" width="450" height="20" as="geometry" />
        </mxCell>
        <mxCell id="bSWN6tdNE-U2g3Sw7Q1R-21" value="&lt;div&gt;+ createNewTypeDevice(typeDeviceCode: int, typeDeviceData: JsonType): void&lt;/div&gt;&lt;div&gt;&lt;br&gt;&lt;/div&gt;" style="text;html=1;strokeColor=none;fillColor=none;align=left;verticalAlign=middle;spacingLeft=4;spacingRight=4;overflow=hidden;rotatable=0;points=[[0,0.5],[1,0.5]];portConstraint=eastwest;whiteSpace=wrap;" parent="bSWN6tdNE-U2g3Sw7Q1R-16" vertex="1">
          <mxGeometry y="92" width="450" height="20" as="geometry" />
        </mxCell>
        <mxCell id="bSWN6tdNE-U2g3Sw7Q1R-20" value="&lt;div&gt;+ setTypeDeviceName(typeDeviceCode: int, name: string): void&lt;/div&gt;&lt;div&gt;&lt;br&gt;&lt;/div&gt;" style="text;html=1;strokeColor=none;fillColor=none;align=left;verticalAlign=middle;spacingLeft=4;spacingRight=4;overflow=hidden;rotatable=0;points=[[0,0.5],[1,0.5]];portConstraint=eastwest;whiteSpace=wrap;" parent="bSWN6tdNE-U2g3Sw7Q1R-16" vertex="1">
          <mxGeometry y="112" width="450" height="20" as="geometry" />
        </mxCell>
        <mxCell id="fmMm7_S-apyC-GX3teiO-23" value="&lt;div&gt;+ setSensorName(typeDeviceCode: int, name: string): void&lt;/div&gt;&lt;div&gt;&lt;br&gt;&lt;/div&gt;" style="text;html=1;strokeColor=none;fillColor=none;align=left;verticalAlign=middle;spacingLeft=4;spacingRight=4;overflow=hidden;rotatable=0;points=[[0,0.5],[1,0.5]];portConstraint=eastwest;whiteSpace=wrap;" parent="bSWN6tdNE-U2g3Sw7Q1R-16" vertex="1">
          <mxGeometry y="132" width="450" height="20" as="geometry" />
        </mxCell>
        <mxCell id="fmMm7_S-apyC-GX3teiO-24" value="&lt;div&gt;+ setConfigs(typeDeviceCode: int, configs: List&amp;lt;Config&amp;gt;): void&lt;/div&gt;&lt;div&gt;&lt;br&gt;&lt;/div&gt;" style="text;html=1;strokeColor=none;fillColor=none;align=left;verticalAlign=middle;spacingLeft=4;spacingRight=4;overflow=hidden;rotatable=0;points=[[0,0.5],[1,0.5]];portConstraint=eastwest;whiteSpace=wrap;" parent="bSWN6tdNE-U2g3Sw7Q1R-16" vertex="1">
          <mxGeometry y="152" width="450" height="20" as="geometry" />
        </mxCell>
        <mxCell id="bSWN6tdNE-U2g3Sw7Q1R-22" value="+ deleteTypeDevice(typeDeviceCode: int): void" style="text;html=1;strokeColor=none;fillColor=none;align=left;verticalAlign=middle;spacingLeft=4;spacingRight=4;overflow=hidden;rotatable=0;points=[[0,0.5],[1,0.5]];portConstraint=eastwest;whiteSpace=wrap;" parent="bSWN6tdNE-U2g3Sw7Q1R-16" vertex="1">
          <mxGeometry y="172" width="450" height="20" as="geometry" />
        </mxCell>
        <mxCell id="bSWN6tdNE-U2g3Sw7Q1R-23" value="&lt;div&gt;+ copyTypeDevice: (fromTypeDeviceCode: int):&amp;nbsp;TypeDevice &lt;br&gt;&lt;/div&gt;" style="text;html=1;strokeColor=none;fillColor=none;align=left;verticalAlign=middle;spacingLeft=4;spacingRight=4;overflow=hidden;rotatable=0;points=[[0,0.5],[1,0.5]];portConstraint=eastwest;whiteSpace=wrap;" parent="bSWN6tdNE-U2g3Sw7Q1R-16" vertex="1">
          <mxGeometry y="192" width="450" height="20" as="geometry" />
        </mxCell>
        <mxCell id="bSWN6tdNE-U2g3Sw7Q1R-24" value="+ validateTypeDevice(typeDeviceData: JsonType) : bool" style="text;html=1;strokeColor=none;fillColor=none;align=left;verticalAlign=middle;spacingLeft=4;spacingRight=4;overflow=hidden;rotatable=0;points=[[0,0.5],[1,0.5]];portConstraint=eastwest;whiteSpace=wrap;" parent="bSWN6tdNE-U2g3Sw7Q1R-16" vertex="1">
          <mxGeometry y="212" width="450" height="20" as="geometry" />
        </mxCell>
        <mxCell id="bSWN6tdNE-U2g3Sw7Q1R-25" value="+ cloneTypeDevice(typeDevicecode: int, newTypeDeviceName: string, newTypeDeviceCode: int): TypeDevice" style="text;html=1;strokeColor=none;fillColor=none;align=left;verticalAlign=middle;spacingLeft=4;spacingRight=4;overflow=hidden;rotatable=0;points=[[0,0.5],[1,0.5]];portConstraint=eastwest;whiteSpace=wrap;" parent="bSWN6tdNE-U2g3Sw7Q1R-16" vertex="1">
          <mxGeometry y="232" width="450" height="37" as="geometry" />
        </mxCell>
        <mxCell id="bSWN6tdNE-U2g3Sw7Q1R-26" value="+ searchConfig(sensorName: string): Config" style="text;html=1;strokeColor=none;fillColor=none;align=left;verticalAlign=middle;spacingLeft=4;spacingRight=4;overflow=hidden;rotatable=0;points=[[0,0.5],[1,0.5]];portConstraint=eastwest;whiteSpace=wrap;" parent="bSWN6tdNE-U2g3Sw7Q1R-16" vertex="1">
          <mxGeometry y="269" width="450" height="20" as="geometry" />
        </mxCell>
        <mxCell id="bSWN6tdNE-U2g3Sw7Q1R-27" value="&lt;div&gt;&amp;lt;&amp;lt;Entity&amp;gt;&amp;gt;&lt;/div&gt;&lt;div&gt;&lt;b&gt;TypeDevice&lt;/b&gt;&lt;/div&gt;&lt;div&gt;&lt;br&gt;&lt;/div&gt;" style="swimlane;fontStyle=0;align=center;verticalAlign=top;childLayout=stackLayout;horizontal=1;startSize=40;horizontalStack=0;resizeParent=1;resizeParentMax=0;resizeLast=0;collapsible=0;marginBottom=0;html=1;whiteSpace=wrap;" parent="1" vertex="1">
          <mxGeometry x="950" y="521" width="200" height="108" as="geometry" />
        </mxCell>
        <mxCell id="bSWN6tdNE-U2g3Sw7Q1R-28" value="- typeDeviceCode: int" style="text;html=1;strokeColor=none;fillColor=none;align=left;verticalAlign=middle;spacingLeft=4;spacingRight=4;overflow=hidden;rotatable=0;points=[[0,0.5],[1,0.5]];portConstraint=eastwest;whiteSpace=wrap;" parent="bSWN6tdNE-U2g3Sw7Q1R-27" vertex="1">
          <mxGeometry y="40" width="200" height="20" as="geometry" />
        </mxCell>
        <mxCell id="bSWN6tdNE-U2g3Sw7Q1R-29" value="&lt;div&gt;- typeDeviceName: string&lt;/div&gt;" style="text;html=1;strokeColor=none;fillColor=none;align=left;verticalAlign=middle;spacingLeft=4;spacingRight=4;overflow=hidden;rotatable=0;points=[[0,0.5],[1,0.5]];portConstraint=eastwest;whiteSpace=wrap;" parent="bSWN6tdNE-U2g3Sw7Q1R-27" vertex="1">
          <mxGeometry y="60" width="200" height="20" as="geometry" />
        </mxCell>
        <mxCell id="bSWN6tdNE-U2g3Sw7Q1R-30" value="&lt;div&gt;- sensorName: string&lt;/div&gt;&lt;div&gt;&lt;br&gt;&lt;/div&gt;" style="text;html=1;strokeColor=none;fillColor=none;align=left;verticalAlign=middle;spacingLeft=4;spacingRight=4;overflow=hidden;rotatable=0;points=[[0,0.5],[1,0.5]];portConstraint=eastwest;whiteSpace=wrap;" parent="bSWN6tdNE-U2g3Sw7Q1R-27" vertex="1">
          <mxGeometry y="80" width="200" height="20" as="geometry" />
        </mxCell>
        <mxCell id="bSWN6tdNE-U2g3Sw7Q1R-31" value="" style="line;strokeWidth=1;fillColor=none;align=left;verticalAlign=middle;spacingTop=-1;spacingLeft=3;spacingRight=3;rotatable=0;labelPosition=right;points=[];portConstraint=eastwest;" parent="bSWN6tdNE-U2g3Sw7Q1R-27" vertex="1">
          <mxGeometry y="100" width="200" height="8" as="geometry" />
        </mxCell>
        <mxCell id="bSWN6tdNE-U2g3Sw7Q1R-32" value="&amp;lt;&amp;lt;Entity&amp;gt;&amp;gt;&lt;br&gt;&lt;b&gt;Config&lt;/b&gt;&lt;div&gt;&lt;br&gt;&lt;/div&gt;" style="swimlane;fontStyle=0;align=center;verticalAlign=top;childLayout=stackLayout;horizontal=1;startSize=40;horizontalStack=0;resizeParent=1;resizeParentMax=0;resizeLast=0;collapsible=0;marginBottom=0;html=1;whiteSpace=wrap;" parent="1" vertex="1">
          <mxGeometry x="1320" y="465" width="280" height="238" as="geometry" />
        </mxCell>
        <mxCell id="bSWN6tdNE-U2g3Sw7Q1R-33" value="- numInput: string" style="text;html=1;strokeColor=none;fillColor=none;align=left;verticalAlign=middle;spacingLeft=4;spacingRight=4;overflow=hidden;rotatable=0;points=[[0,0.5],[1,0.5]];portConstraint=eastwest;whiteSpace=wrap;" parent="bSWN6tdNE-U2g3Sw7Q1R-32" vertex="1">
          <mxGeometry y="40" width="280" height="20" as="geometry" />
        </mxCell>
        <mxCell id="bSWN6tdNE-U2g3Sw7Q1R-34" value="- sensorName: string" style="text;html=1;strokeColor=none;fillColor=none;align=left;verticalAlign=middle;spacingLeft=4;spacingRight=4;overflow=hidden;rotatable=0;points=[[0,0.5],[1,0.5]];portConstraint=eastwest;whiteSpace=wrap;" parent="bSWN6tdNE-U2g3Sw7Q1R-32" vertex="1">
          <mxGeometry y="60" width="280" height="20" as="geometry" />
        </mxCell>
        <mxCell id="bSWN6tdNE-U2g3Sw7Q1R-35" value="- unit : string" style="text;html=1;strokeColor=none;fillColor=none;align=left;verticalAlign=middle;spacingLeft=4;spacingRight=4;overflow=hidden;rotatable=0;points=[[0,0.5],[1,0.5]];portConstraint=eastwest;whiteSpace=wrap;" parent="bSWN6tdNE-U2g3Sw7Q1R-32" vertex="1">
          <mxGeometry y="80" width="280" height="20" as="geometry" />
        </mxCell>
        <mxCell id="bSWN6tdNE-U2g3Sw7Q1R-36" value="- xmax, xmin, ymax, ymin : double" style="text;html=1;strokeColor=none;fillColor=none;align=left;verticalAlign=middle;spacingLeft=4;spacingRight=4;overflow=hidden;rotatable=0;points=[[0,0.5],[1,0.5]];portConstraint=eastwest;whiteSpace=wrap;" parent="bSWN6tdNE-U2g3Sw7Q1R-32" vertex="1">
          <mxGeometry y="100" width="280" height="20" as="geometry" />
        </mxCell>
        <mxCell id="bSWN6tdNE-U2g3Sw7Q1R-37" value="- highThres, lowThres : double" style="text;html=1;strokeColor=none;fillColor=none;align=left;verticalAlign=middle;spacingLeft=4;spacingRight=4;overflow=hidden;rotatable=0;points=[[0,0.5],[1,0.5]];portConstraint=eastwest;whiteSpace=wrap;" parent="bSWN6tdNE-U2g3Sw7Q1R-32" vertex="1">
          <mxGeometry y="120" width="280" height="20" as="geometry" />
        </mxCell>
        <mxCell id="bSWN6tdNE-U2g3Sw7Q1R-38" value="&lt;div&gt;- controlParam : map &amp;lt;string, int&amp;gt;&lt;/div&gt;" style="text;html=1;strokeColor=none;fillColor=none;align=left;verticalAlign=middle;spacingLeft=4;spacingRight=4;overflow=hidden;rotatable=0;points=[[0,0.5],[1,0.5]];portConstraint=eastwest;whiteSpace=wrap;" parent="bSWN6tdNE-U2g3Sw7Q1R-32" vertex="1">
          <mxGeometry y="140" width="280" height="20" as="geometry" />
        </mxCell>
        <mxCell id="bSWN6tdNE-U2g3Sw7Q1R-39" value="&lt;div&gt;- controlType: string {&quot;onoff&quot;, &quot;custom&quot;}&lt;/div&gt;" style="text;html=1;strokeColor=none;fillColor=none;align=left;verticalAlign=middle;spacingLeft=4;spacingRight=4;overflow=hidden;rotatable=0;points=[[0,0.5],[1,0.5]];portConstraint=eastwest;whiteSpace=wrap;" parent="bSWN6tdNE-U2g3Sw7Q1R-32" vertex="1">
          <mxGeometry y="160" width="280" height="20" as="geometry" />
        </mxCell>
        <mxCell id="bSWN6tdNE-U2g3Sw7Q1R-40" value="&lt;div&gt;- category:&amp;nbsp; string&lt;br&gt;&lt;/div&gt;" style="text;html=1;strokeColor=none;fillColor=none;align=left;verticalAlign=middle;spacingLeft=4;spacingRight=4;overflow=hidden;rotatable=0;points=[[0,0.5],[1,0.5]];portConstraint=eastwest;whiteSpace=wrap;" parent="bSWN6tdNE-U2g3Sw7Q1R-32" vertex="1">
          <mxGeometry y="180" width="280" height="20" as="geometry" />
        </mxCell>
        <mxCell id="bSWN6tdNE-U2g3Sw7Q1R-41" value="&lt;div&gt;- permission: string = &quot;read and write&quot; {&quot;read and write&quot;, &quot;hidden&quot;, &quot;read&quot;}&lt;/div&gt;" style="text;html=1;strokeColor=none;fillColor=none;align=left;verticalAlign=middle;spacingLeft=4;spacingRight=4;overflow=hidden;rotatable=0;points=[[0,0.5],[1,0.5]];portConstraint=eastwest;whiteSpace=wrap;" parent="bSWN6tdNE-U2g3Sw7Q1R-32" vertex="1">
          <mxGeometry y="200" width="280" height="30" as="geometry" />
        </mxCell>
        <mxCell id="bSWN6tdNE-U2g3Sw7Q1R-42" value="" style="line;strokeWidth=1;fillColor=none;align=left;verticalAlign=middle;spacingTop=-1;spacingLeft=3;spacingRight=3;rotatable=0;labelPosition=right;points=[];portConstraint=eastwest;" parent="bSWN6tdNE-U2g3Sw7Q1R-32" vertex="1">
          <mxGeometry y="230" width="280" height="8" as="geometry" />
        </mxCell>
        <mxCell id="bSWN6tdNE-U2g3Sw7Q1R-43" value="" style="endArrow=diamondThin;endFill=1;endSize=24;html=1;rounded=0;entryX=1;entryY=0.5;entryDx=0;entryDy=0;exitX=0;exitY=0.5;exitDx=0;exitDy=0;" parent="1" source="bSWN6tdNE-U2g3Sw7Q1R-36" target="bSWN6tdNE-U2g3Sw7Q1R-27" edge="1">
          <mxGeometry width="160" relative="1" as="geometry">
            <mxPoint x="1050" y="400" as="sourcePoint" />
            <mxPoint x="1210" y="400" as="targetPoint" />
          </mxGeometry>
        </mxCell>
        <mxCell id="bSWN6tdNE-U2g3Sw7Q1R-44" style="rounded=0;orthogonalLoop=1;jettySize=auto;html=1;exitX=1;exitY=0.5;exitDx=0;exitDy=0;entryX=0;entryY=0.5;entryDx=0;entryDy=0;" parent="1" source="bSWN6tdNE-U2g3Sw7Q1R-18" target="bSWN6tdNE-U2g3Sw7Q1R-28" edge="1">
          <mxGeometry relative="1" as="geometry" />
        </mxCell>
        <mxCell id="bSWN6tdNE-U2g3Sw7Q1R-45" style="rounded=0;orthogonalLoop=1;jettySize=auto;html=1;exitX=1;exitY=0.5;exitDx=0;exitDy=0;entryX=0;entryY=0.5;entryDx=0;entryDy=0;" parent="1" source="bSWN6tdNE-U2g3Sw7Q1R-7" target="bSWN6tdNE-U2g3Sw7Q1R-21" edge="1">
          <mxGeometry relative="1" as="geometry">
            <mxPoint x="360" y="360" as="sourcePoint" />
          </mxGeometry>
        </mxCell>
        <mxCell id="bSWN6tdNE-U2g3Sw7Q1R-46" value="&amp;lt;&amp;lt;boundary&amp;gt;&amp;gt;&lt;br&gt;&lt;b&gt;V_ConfigView&lt;/b&gt;&lt;div&gt;&lt;br&gt;&lt;/div&gt;" style="swimlane;fontStyle=0;align=center;verticalAlign=top;childLayout=stackLayout;horizontal=1;startSize=40;horizontalStack=0;resizeParent=1;resizeParentMax=0;resizeLast=0;collapsible=0;marginBottom=0;html=1;whiteSpace=wrap;" parent="1" vertex="1">
          <mxGeometry x="560" y="150" width="230" height="326" as="geometry" />
        </mxCell>
        <mxCell id="bSWN6tdNE-U2g3Sw7Q1R-47" value="- numInput: string" style="text;html=1;strokeColor=none;fillColor=none;align=left;verticalAlign=middle;spacingLeft=4;spacingRight=4;overflow=hidden;rotatable=0;points=[[0,0.5],[1,0.5]];portConstraint=eastwest;whiteSpace=wrap;" parent="bSWN6tdNE-U2g3Sw7Q1R-46" vertex="1">
          <mxGeometry y="40" width="230" height="20" as="geometry" />
        </mxCell>
        <mxCell id="bSWN6tdNE-U2g3Sw7Q1R-48" value="- sensorName: string" style="text;html=1;strokeColor=none;fillColor=none;align=left;verticalAlign=middle;spacingLeft=4;spacingRight=4;overflow=hidden;rotatable=0;points=[[0,0.5],[1,0.5]];portConstraint=eastwest;whiteSpace=wrap;" parent="bSWN6tdNE-U2g3Sw7Q1R-46" vertex="1">
          <mxGeometry y="60" width="230" height="20" as="geometry" />
        </mxCell>
        <mxCell id="bSWN6tdNE-U2g3Sw7Q1R-49" value="- unit : string" style="text;html=1;strokeColor=none;fillColor=none;align=left;verticalAlign=middle;spacingLeft=4;spacingRight=4;overflow=hidden;rotatable=0;points=[[0,0.5],[1,0.5]];portConstraint=eastwest;whiteSpace=wrap;" parent="bSWN6tdNE-U2g3Sw7Q1R-46" vertex="1">
          <mxGeometry y="80" width="230" height="20" as="geometry" />
        </mxCell>
        <mxCell id="bSWN6tdNE-U2g3Sw7Q1R-50" value="- xmax, xmin, ymax, ymin : double" style="text;html=1;strokeColor=none;fillColor=none;align=left;verticalAlign=middle;spacingLeft=4;spacingRight=4;overflow=hidden;rotatable=0;points=[[0,0.5],[1,0.5]];portConstraint=eastwest;whiteSpace=wrap;" parent="bSWN6tdNE-U2g3Sw7Q1R-46" vertex="1">
          <mxGeometry y="100" width="230" height="20" as="geometry" />
        </mxCell>
        <mxCell id="bSWN6tdNE-U2g3Sw7Q1R-51" value="- highThres, lowThres : double" style="text;html=1;strokeColor=none;fillColor=none;align=left;verticalAlign=middle;spacingLeft=4;spacingRight=4;overflow=hidden;rotatable=0;points=[[0,0.5],[1,0.5]];portConstraint=eastwest;whiteSpace=wrap;" parent="bSWN6tdNE-U2g3Sw7Q1R-46" vertex="1">
          <mxGeometry y="120" width="230" height="20" as="geometry" />
        </mxCell>
        <mxCell id="bSWN6tdNE-U2g3Sw7Q1R-52" value="&lt;div&gt;- controlParam: map&amp;lt;string, int&amp;gt;&lt;/div&gt;" style="text;html=1;strokeColor=none;fillColor=none;align=left;verticalAlign=middle;spacingLeft=4;spacingRight=4;overflow=hidden;rotatable=0;points=[[0,0.5],[1,0.5]];portConstraint=eastwest;whiteSpace=wrap;" parent="bSWN6tdNE-U2g3Sw7Q1R-46" vertex="1">
          <mxGeometry y="140" width="230" height="20" as="geometry" />
        </mxCell>
        <mxCell id="bSWN6tdNE-U2g3Sw7Q1R-53" value="&lt;div&gt;- category:&amp;nbsp; string&lt;br&gt;&lt;/div&gt;" style="text;html=1;strokeColor=none;fillColor=none;align=left;verticalAlign=middle;spacingLeft=4;spacingRight=4;overflow=hidden;rotatable=0;points=[[0,0.5],[1,0.5]];portConstraint=eastwest;whiteSpace=wrap;" parent="bSWN6tdNE-U2g3Sw7Q1R-46" vertex="1">
          <mxGeometry y="160" width="230" height="20" as="geometry" />
        </mxCell>
        <mxCell id="bSWN6tdNE-U2g3Sw7Q1R-54" value="&lt;div&gt;- controlType: string {&quot;onoff&quot;, &quot;custom&quot;}&lt;/div&gt;" style="text;html=1;strokeColor=none;fillColor=none;align=left;verticalAlign=middle;spacingLeft=4;spacingRight=4;overflow=hidden;rotatable=0;points=[[0,0.5],[1,0.5]];portConstraint=eastwest;whiteSpace=wrap;" parent="bSWN6tdNE-U2g3Sw7Q1R-46" vertex="1">
          <mxGeometry y="180" width="230" height="20" as="geometry" />
        </mxCell>
        <mxCell id="bSWN6tdNE-U2g3Sw7Q1R-55" value="&lt;div&gt;- permission: str = &quot;read and write&quot; {&quot;read and write&quot;, &quot;hidden&quot;, &quot;read&quot;}&lt;/div&gt;" style="text;html=1;strokeColor=none;fillColor=none;align=left;verticalAlign=middle;spacingLeft=4;spacingRight=4;overflow=hidden;rotatable=0;points=[[0,0.5],[1,0.5]];portConstraint=eastwest;whiteSpace=wrap;" parent="bSWN6tdNE-U2g3Sw7Q1R-46" vertex="1">
          <mxGeometry y="200" width="230" height="30" as="geometry" />
        </mxCell>
        <mxCell id="bSWN6tdNE-U2g3Sw7Q1R-56" value="" style="line;strokeWidth=1;fillColor=none;align=left;verticalAlign=middle;spacingTop=-1;spacingLeft=3;spacingRight=3;rotatable=0;labelPosition=right;points=[];portConstraint=eastwest;" parent="bSWN6tdNE-U2g3Sw7Q1R-46" vertex="1">
          <mxGeometry y="230" width="230" height="8" as="geometry" />
        </mxCell>
        <mxCell id="bSWN6tdNE-U2g3Sw7Q1R-57" value="+ viewConfig(config: Config): void" style="text;html=1;strokeColor=none;fillColor=none;align=left;verticalAlign=middle;spacingLeft=4;spacingRight=4;overflow=hidden;rotatable=0;points=[[0,0.5],[1,0.5]];portConstraint=eastwest;whiteSpace=wrap;" parent="bSWN6tdNE-U2g3Sw7Q1R-46" vertex="1">
          <mxGeometry y="238" width="230" height="22" as="geometry" />
        </mxCell>
        <mxCell id="bSWN6tdNE-U2g3Sw7Q1R-58" value="+ viewConfig(): void" style="text;html=1;strokeColor=none;fillColor=none;align=left;verticalAlign=middle;spacingLeft=4;spacingRight=4;overflow=hidden;rotatable=0;points=[[0,0.5],[1,0.5]];portConstraint=eastwest;whiteSpace=wrap;" parent="bSWN6tdNE-U2g3Sw7Q1R-46" vertex="1">
          <mxGeometry y="260" width="230" height="22" as="geometry" />
        </mxCell>
        <mxCell id="bSWN6tdNE-U2g3Sw7Q1R-59" value="+ editConfig(): void" style="text;html=1;strokeColor=none;fillColor=none;align=left;verticalAlign=middle;spacingLeft=4;spacingRight=4;overflow=hidden;rotatable=0;points=[[0,0.5],[1,0.5]];portConstraint=eastwest;whiteSpace=wrap;" parent="bSWN6tdNE-U2g3Sw7Q1R-46" vertex="1">
          <mxGeometry y="282" width="230" height="22" as="geometry" />
        </mxCell>
        <mxCell id="bSWN6tdNE-U2g3Sw7Q1R-60" value="+ updateView(): void" style="text;html=1;strokeColor=none;fillColor=none;align=left;verticalAlign=middle;spacingLeft=4;spacingRight=4;overflow=hidden;rotatable=0;points=[[0,0.5],[1,0.5]];portConstraint=eastwest;whiteSpace=wrap;" parent="bSWN6tdNE-U2g3Sw7Q1R-46" vertex="1">
          <mxGeometry y="304" width="230" height="22" as="geometry" />
        </mxCell>
        <mxCell id="bSWN6tdNE-U2g3Sw7Q1R-61" value="" style="endArrow=diamondThin;endFill=1;endSize=24;html=1;rounded=0;entryX=1;entryY=0.5;entryDx=0;entryDy=0;" parent="1" target="bSWN6tdNE-U2g3Sw7Q1R-5" edge="1">
          <mxGeometry width="160" relative="1" as="geometry">
            <mxPoint x="560" y="370" as="sourcePoint" />
            <mxPoint x="600" y="380" as="targetPoint" />
            <Array as="points" />
          </mxGeometry>
        </mxCell>
        <mxCell id="bSWN6tdNE-U2g3Sw7Q1R-62" value="1" style="text;html=1;align=center;verticalAlign=middle;resizable=0;points=[];autosize=1;strokeColor=none;fillColor=none;" parent="1" vertex="1">
          <mxGeometry x="290" y="380" width="30" height="30" as="geometry" />
        </mxCell>
        <mxCell id="bSWN6tdNE-U2g3Sw7Q1R-63" value="1..*" style="text;html=1;align=center;verticalAlign=middle;resizable=0;points=[];autosize=1;strokeColor=none;fillColor=none;" parent="1" vertex="1">
          <mxGeometry x="520" y="340" width="40" height="30" as="geometry" />
        </mxCell>
        <mxCell id="bSWN6tdNE-U2g3Sw7Q1R-64" value="1" style="text;html=1;align=center;verticalAlign=middle;resizable=0;points=[];autosize=1;strokeColor=none;fillColor=none;" parent="1" vertex="1">
          <mxGeometry x="1145" y="548" width="30" height="30" as="geometry" />
        </mxCell>
        <mxCell id="bSWN6tdNE-U2g3Sw7Q1R-65" value="1..*" style="text;html=1;align=center;verticalAlign=middle;resizable=0;points=[];autosize=1;strokeColor=none;fillColor=none;" parent="1" vertex="1">
          <mxGeometry x="1280" y="548" width="40" height="30" as="geometry" />
        </mxCell>
        <mxCell id="bSWN6tdNE-U2g3Sw7Q1R-66" style="rounded=0;orthogonalLoop=1;jettySize=auto;html=1;exitX=1;exitY=0.5;exitDx=0;exitDy=0;entryX=0;entryY=0.5;entryDx=0;entryDy=0;" parent="1" source="bSWN6tdNE-U2g3Sw7Q1R-68" target="bSWN6tdNE-U2g3Sw7Q1R-7" edge="1">
          <mxGeometry relative="1" as="geometry" />
        </mxCell>
        <mxCell id="bSWN6tdNE-U2g3Sw7Q1R-67" value="&amp;lt;&amp;lt;Boundary&amp;gt;&amp;gt;&lt;br&gt;&lt;b&gt;V_TableTypeDevice&lt;/b&gt;" style="swimlane;fontStyle=0;align=center;verticalAlign=top;childLayout=stackLayout;horizontal=1;startSize=55;horizontalStack=0;resizeParent=1;resizeParentMax=0;resizeLast=0;collapsible=0;marginBottom=0;html=1;whiteSpace=wrap;" parent="1" vertex="1">
          <mxGeometry x="-470" y="586" width="330" height="263" as="geometry" />
        </mxCell>
        <mxCell id="bSWN6tdNE-U2g3Sw7Q1R-68" value="- typeDeviceList: List&amp;lt;TypeDevice&amp;gt;" style="text;html=1;strokeColor=none;fillColor=none;align=left;verticalAlign=middle;spacingLeft=4;spacingRight=4;overflow=hidden;rotatable=0;points=[[0,0.5],[1,0.5]];portConstraint=eastwest;whiteSpace=wrap;" parent="bSWN6tdNE-U2g3Sw7Q1R-67" vertex="1">
          <mxGeometry y="55" width="330" height="20" as="geometry" />
        </mxCell>
        <mxCell id="bSWN6tdNE-U2g3Sw7Q1R-69" value="- selectedTypeDeviceCode: int" style="text;html=1;strokeColor=none;fillColor=none;align=left;verticalAlign=middle;spacingLeft=4;spacingRight=4;overflow=hidden;rotatable=0;points=[[0,0.5],[1,0.5]];portConstraint=eastwest;whiteSpace=wrap;" parent="bSWN6tdNE-U2g3Sw7Q1R-67" vertex="1">
          <mxGeometry y="75" width="330" height="20" as="geometry" />
        </mxCell>
        <mxCell id="bSWN6tdNE-U2g3Sw7Q1R-70" value="- /numberOfParamsMap: Map&amp;lt;int, int&amp;gt;" style="text;html=1;strokeColor=none;fillColor=none;align=left;verticalAlign=middle;spacingLeft=4;spacingRight=4;overflow=hidden;rotatable=0;points=[[0,0.5],[1,0.5]];portConstraint=eastwest;whiteSpace=wrap;" parent="bSWN6tdNE-U2g3Sw7Q1R-67" vertex="1">
          <mxGeometry y="95" width="330" height="20" as="geometry" />
        </mxCell>
        <mxCell id="bSWN6tdNE-U2g3Sw7Q1R-71" value="- sortBy: string" style="text;html=1;strokeColor=none;fillColor=none;align=left;verticalAlign=middle;spacingLeft=4;spacingRight=4;overflow=hidden;rotatable=0;points=[[0,0.5],[1,0.5]];portConstraint=eastwest;whiteSpace=wrap;" parent="bSWN6tdNE-U2g3Sw7Q1R-67" vertex="1">
          <mxGeometry y="115" width="330" height="20" as="geometry" />
        </mxCell>
        <mxCell id="bSWN6tdNE-U2g3Sw7Q1R-72" value="- sortOrder: string" style="text;html=1;strokeColor=none;fillColor=none;align=left;verticalAlign=middle;spacingLeft=4;spacingRight=4;overflow=hidden;rotatable=0;points=[[0,0.5],[1,0.5]];portConstraint=eastwest;whiteSpace=wrap;" parent="bSWN6tdNE-U2g3Sw7Q1R-67" vertex="1">
          <mxGeometry y="135" width="330" height="20" as="geometry" />
        </mxCell>
        <mxCell id="bSWN6tdNE-U2g3Sw7Q1R-73" value="" style="line;strokeWidth=1;fillColor=none;align=left;verticalAlign=middle;spacingTop=-1;spacingLeft=3;spacingRight=3;rotatable=0;labelPosition=right;points=[];portConstraint=eastwest;" parent="bSWN6tdNE-U2g3Sw7Q1R-67" vertex="1">
          <mxGeometry y="155" width="330" height="8" as="geometry" />
        </mxCell>
        <mxCell id="bSWN6tdNE-U2g3Sw7Q1R-74" value="+ viewTableTypeDevice(): void" style="text;html=1;strokeColor=none;fillColor=none;align=left;verticalAlign=middle;spacingLeft=4;spacingRight=4;overflow=hidden;rotatable=0;points=[[0,0.5],[1,0.5]];portConstraint=eastwest;whiteSpace=wrap;" parent="bSWN6tdNE-U2g3Sw7Q1R-67" vertex="1">
          <mxGeometry y="163" width="330" height="20" as="geometry" />
        </mxCell>
        <mxCell id="bSWN6tdNE-U2g3Sw7Q1R-75" value="+ loadNumberOfParamsForAll: void" style="text;html=1;strokeColor=none;fillColor=none;align=left;verticalAlign=middle;spacingLeft=4;spacingRight=4;overflow=hidden;rotatable=0;points=[[0,0.5],[1,0.5]];portConstraint=eastwest;whiteSpace=wrap;" parent="bSWN6tdNE-U2g3Sw7Q1R-67" vertex="1">
          <mxGeometry y="183" width="330" height="20" as="geometry" />
        </mxCell>
        <mxCell id="bSWN6tdNE-U2g3Sw7Q1R-76" value="+ deleteTypeDevice(typeDeviceCode: int): void" style="text;html=1;strokeColor=none;fillColor=none;align=left;verticalAlign=middle;spacingLeft=4;spacingRight=4;overflow=hidden;rotatable=0;points=[[0,0.5],[1,0.5]];portConstraint=eastwest;whiteSpace=wrap;" parent="bSWN6tdNE-U2g3Sw7Q1R-67" vertex="1">
          <mxGeometry y="203" width="330" height="20" as="geometry" />
        </mxCell>
        <mxCell id="bSWN6tdNE-U2g3Sw7Q1R-77" value="+ addNewTypeDevice(): void" style="text;html=1;strokeColor=none;fillColor=none;align=left;verticalAlign=middle;spacingLeft=4;spacingRight=4;overflow=hidden;rotatable=0;points=[[0,0.5],[1,0.5]];portConstraint=eastwest;whiteSpace=wrap;" parent="bSWN6tdNE-U2g3Sw7Q1R-67" vertex="1">
          <mxGeometry y="223" width="330" height="20" as="geometry" />
        </mxCell>
        <mxCell id="bSWN6tdNE-U2g3Sw7Q1R-78" value="+ viewTypeDeviceInformation(typeDeviceCode: int): void" style="text;html=1;strokeColor=none;fillColor=none;align=left;verticalAlign=middle;spacingLeft=4;spacingRight=4;overflow=hidden;rotatable=0;points=[[0,0.5],[1,0.5]];portConstraint=eastwest;whiteSpace=wrap;" parent="bSWN6tdNE-U2g3Sw7Q1R-67" vertex="1">
          <mxGeometry y="243" width="330" height="20" as="geometry" />
        </mxCell>
        <mxCell id="bSWN6tdNE-U2g3Sw7Q1R-80" style="rounded=0;orthogonalLoop=1;jettySize=auto;html=1;entryX=0;entryY=0.5;entryDx=0;entryDy=0;" parent="1" source="bSWN6tdNE-U2g3Sw7Q1R-75" target="bSWN6tdNE-U2g3Sw7Q1R-24" edge="1">
          <mxGeometry relative="1" as="geometry">
            <mxPoint x="470" y="680" as="targetPoint" />
          </mxGeometry>
        </mxCell>
        <mxCell id="fmMm7_S-apyC-GX3teiO-1" value="&amp;lt;&amp;lt;control&amp;gt;&amp;gt;&lt;br&gt;&lt;b&gt;C_Configuration&lt;/b&gt;&lt;div&gt;&lt;br&gt;&lt;/div&gt;" style="swimlane;fontStyle=0;align=center;verticalAlign=top;childLayout=stackLayout;horizontal=1;startSize=55;horizontalStack=0;resizeParent=1;resizeParentMax=0;resizeLast=0;collapsible=0;marginBottom=0;html=1;whiteSpace=wrap;" parent="1" vertex="1">
          <mxGeometry x="1000" y="810" width="410" height="323" as="geometry" />
        </mxCell>
        <mxCell id="fmMm7_S-apyC-GX3teiO-2" value="" style="line;strokeWidth=1;fillColor=none;align=left;verticalAlign=middle;spacingTop=-1;spacingLeft=3;spacingRight=3;rotatable=0;labelPosition=right;points=[];portConstraint=eastwest;" parent="fmMm7_S-apyC-GX3teiO-1" vertex="1">
          <mxGeometry y="55" width="410" height="8" as="geometry" />
        </mxCell>
        <mxCell id="fmMm7_S-apyC-GX3teiO-6" value="&lt;div&gt;+ createNewConfig(): Config&lt;/div&gt;&lt;div&gt;&lt;br&gt;&lt;/div&gt;" style="text;html=1;strokeColor=none;fillColor=none;align=left;verticalAlign=middle;spacingLeft=4;spacingRight=4;overflow=hidden;rotatable=0;points=[[0,0.5],[1,0.5]];portConstraint=eastwest;whiteSpace=wrap;" parent="fmMm7_S-apyC-GX3teiO-1" vertex="1">
          <mxGeometry y="63" width="410" height="20" as="geometry" />
        </mxCell>
        <mxCell id="fmMm7_S-apyC-GX3teiO-5" value="&lt;div&gt;+ setNumInput(numInput: string): void&lt;/div&gt;" style="text;html=1;strokeColor=none;fillColor=none;align=left;verticalAlign=middle;spacingLeft=4;spacingRight=4;overflow=hidden;rotatable=0;points=[[0,0.5],[1,0.5]];portConstraint=eastwest;whiteSpace=wrap;" parent="fmMm7_S-apyC-GX3teiO-1" vertex="1">
          <mxGeometry y="83" width="410" height="20" as="geometry" />
        </mxCell>
        <mxCell id="fmMm7_S-apyC-GX3teiO-7" value="+ setSensorName(name: string): void" style="text;html=1;strokeColor=none;fillColor=none;align=left;verticalAlign=middle;spacingLeft=4;spacingRight=4;overflow=hidden;rotatable=0;points=[[0,0.5],[1,0.5]];portConstraint=eastwest;whiteSpace=wrap;" parent="fmMm7_S-apyC-GX3teiO-1" vertex="1">
          <mxGeometry y="103" width="410" height="20" as="geometry" />
        </mxCell>
        <mxCell id="fmMm7_S-apyC-GX3teiO-8" value="+ setUnit(unit: string): void" style="text;html=1;strokeColor=none;fillColor=none;align=left;verticalAlign=middle;spacingLeft=4;spacingRight=4;overflow=hidden;rotatable=0;points=[[0,0.5],[1,0.5]];portConstraint=eastwest;whiteSpace=wrap;" parent="fmMm7_S-apyC-GX3teiO-1" vertex="1">
          <mxGeometry y="123" width="410" height="20" as="geometry" />
        </mxCell>
        <mxCell id="fmMm7_S-apyC-GX3teiO-12" value="+ setX(xMin: double, xMax: double): void" style="text;html=1;strokeColor=none;fillColor=none;align=left;verticalAlign=middle;spacingLeft=4;spacingRight=4;overflow=hidden;rotatable=0;points=[[0,0.5],[1,0.5]];portConstraint=eastwest;whiteSpace=wrap;" parent="fmMm7_S-apyC-GX3teiO-1" vertex="1">
          <mxGeometry y="143" width="410" height="20" as="geometry" />
        </mxCell>
        <mxCell id="fmMm7_S-apyC-GX3teiO-13" value="+ setY(yMin: double, yMax: double): void" style="text;html=1;strokeColor=none;fillColor=none;align=left;verticalAlign=middle;spacingLeft=4;spacingRight=4;overflow=hidden;rotatable=0;points=[[0,0.5],[1,0.5]];portConstraint=eastwest;whiteSpace=wrap;" parent="fmMm7_S-apyC-GX3teiO-1" vertex="1">
          <mxGeometry y="163" width="410" height="20" as="geometry" />
        </mxCell>
        <mxCell id="fmMm7_S-apyC-GX3teiO-14" value="+ setThreshold(highThreshold: double, lowThreshold: double): void" style="text;html=1;strokeColor=none;fillColor=none;align=left;verticalAlign=middle;spacingLeft=4;spacingRight=4;overflow=hidden;rotatable=0;points=[[0,0.5],[1,0.5]];portConstraint=eastwest;whiteSpace=wrap;" parent="fmMm7_S-apyC-GX3teiO-1" vertex="1">
          <mxGeometry y="183" width="410" height="20" as="geometry" />
        </mxCell>
        <mxCell id="fmMm7_S-apyC-GX3teiO-16" value="+ setControlParam(param: string): void" style="text;html=1;strokeColor=none;fillColor=none;align=left;verticalAlign=middle;spacingLeft=4;spacingRight=4;overflow=hidden;rotatable=0;points=[[0,0.5],[1,0.5]];portConstraint=eastwest;whiteSpace=wrap;" parent="fmMm7_S-apyC-GX3teiO-1" vertex="1">
          <mxGeometry y="203" width="410" height="20" as="geometry" />
        </mxCell>
        <mxCell id="fmMm7_S-apyC-GX3teiO-17" value="+ setControlType(controlType: string): void" style="text;html=1;strokeColor=none;fillColor=none;align=left;verticalAlign=middle;spacingLeft=4;spacingRight=4;overflow=hidden;rotatable=0;points=[[0,0.5],[1,0.5]];portConstraint=eastwest;whiteSpace=wrap;" parent="fmMm7_S-apyC-GX3teiO-1" vertex="1">
          <mxGeometry y="223" width="410" height="20" as="geometry" />
        </mxCell>
        <mxCell id="fmMm7_S-apyC-GX3teiO-18" value="+ setCategory(category: string): void" style="text;html=1;strokeColor=none;fillColor=none;align=left;verticalAlign=middle;spacingLeft=4;spacingRight=4;overflow=hidden;rotatable=0;points=[[0,0.5],[1,0.5]];portConstraint=eastwest;whiteSpace=wrap;" parent="fmMm7_S-apyC-GX3teiO-1" vertex="1">
          <mxGeometry y="243" width="410" height="20" as="geometry" />
        </mxCell>
        <mxCell id="fmMm7_S-apyC-GX3teiO-19" value="+ setPermission(permission: string): void" style="text;html=1;strokeColor=none;fillColor=none;align=left;verticalAlign=middle;spacingLeft=4;spacingRight=4;overflow=hidden;rotatable=0;points=[[0,0.5],[1,0.5]];portConstraint=eastwest;whiteSpace=wrap;" parent="fmMm7_S-apyC-GX3teiO-1" vertex="1">
          <mxGeometry y="263" width="410" height="20" as="geometry" />
        </mxCell>
        <mxCell id="fmMm7_S-apyC-GX3teiO-9" value="+ validateValue(config: Config) : bool" style="text;html=1;strokeColor=none;fillColor=none;align=left;verticalAlign=middle;spacingLeft=4;spacingRight=4;overflow=hidden;rotatable=0;points=[[0,0.5],[1,0.5]];portConstraint=eastwest;whiteSpace=wrap;" parent="fmMm7_S-apyC-GX3teiO-1" vertex="1">
          <mxGeometry y="283" width="410" height="20" as="geometry" />
        </mxCell>
        <mxCell id="fmMm7_S-apyC-GX3teiO-11" value="+ getConfig(sensorName: string): Config" style="text;html=1;strokeColor=none;fillColor=none;align=left;verticalAlign=middle;spacingLeft=4;spacingRight=4;overflow=hidden;rotatable=0;points=[[0,0.5],[1,0.5]];portConstraint=eastwest;whiteSpace=wrap;" parent="fmMm7_S-apyC-GX3teiO-1" vertex="1">
          <mxGeometry y="303" width="410" height="20" as="geometry" />
        </mxCell>
        <mxCell id="fmMm7_S-apyC-GX3teiO-21" style="rounded=0;orthogonalLoop=1;jettySize=auto;html=1;exitX=1;exitY=0.5;exitDx=0;exitDy=0;entryX=0;entryY=0.5;entryDx=0;entryDy=0;" parent="1" source="bSWN6tdNE-U2g3Sw7Q1R-23" target="fmMm7_S-apyC-GX3teiO-1" edge="1">
          <mxGeometry relative="1" as="geometry" />
        </mxCell>
        <mxCell id="fmMm7_S-apyC-GX3teiO-22" style="edgeStyle=orthogonalEdgeStyle;rounded=0;orthogonalLoop=1;jettySize=auto;html=1;exitX=1;exitY=0.5;exitDx=0;exitDy=0;entryX=0.75;entryY=1;entryDx=0;entryDy=0;" parent="1" source="fmMm7_S-apyC-GX3teiO-14" target="bSWN6tdNE-U2g3Sw7Q1R-32" edge="1">
          <mxGeometry relative="1" as="geometry" />
        </mxCell>
      </root>
    </mxGraphModel>
  </diagram>
</mxfile>
